<?xml version="1.0" encoding="UTF-8" standalone="no"?>
<!-- Created with Inkscape (http://www.inkscape.org/) -->

<svg
   width="210mm"
   height="297mm"
   viewBox="0 0 210 297"
   version="1.1"
   id="svg5"
   xml:space="preserve"
   inkscape:version="1.2.2 (b0a8486541, 2022-12-01)"
   sodipodi:docname="pt-react-inkscape.svg"
   xmlns:inkscape="http://www.inkscape.org/namespaces/inkscape"
   xmlns:sodipodi="http://sodipodi.sourceforge.net/DTD/sodipodi-0.dtd"
   xmlns:xlink="http://www.w3.org/1999/xlink"
   xmlns="http://www.w3.org/2000/svg"
   xmlns:svg="http://www.w3.org/2000/svg"><sodipodi:namedview
     id="namedview7"
     pagecolor="#505050"
     bordercolor="#eeeeee"
     borderopacity="1"
     inkscape:showpageshadow="0"
     inkscape:pageopacity="0"
     inkscape:pagecheckerboard="0"
     inkscape:deskcolor="#505050"
     inkscape:document-units="mm"
     showgrid="false"
     inkscape:zoom="1.4142136"
     inkscape:cx="331.27952"
     inkscape:cy="482.60037"
     inkscape:window-width="1920"
     inkscape:window-height="991"
     inkscape:window-x="-9"
     inkscape:window-y="-9"
     inkscape:window-maximized="1"
     inkscape:current-layer="layer1" /><defs
     id="defs2"><inkscape:path-effect
       effect="powerclip"
       id="path-effect24350"
       is_visible="true"
       lpeversion="1"
       inverse="true"
       flatten="false"
       hide_clip="false"
       message="Use fill-rule evenodd on &lt;b&gt;fill and stroke&lt;/b&gt; dialog if no flatten result after convert clip to paths." /><inkscape:path-effect
       effect="powerclip"
       id="path-effect20694"
       is_visible="true"
       lpeversion="1"
       inverse="true"
       flatten="false"
       hide_clip="false"
       message="Use fill-rule evenodd on &lt;b&gt;fill and stroke&lt;/b&gt; dialog if no flatten result after convert clip to paths." /><linearGradient
       inkscape:collect="always"
       id="linearGradient7425"><stop
         style="stop-color:#7e00d8;stop-opacity:1;"
         offset="0.078125"
         id="stop7421" /><stop
         style="stop-color:#e1593b;stop-opacity:1;"
         offset="0.64999998"
         id="stop8283" /><stop
         style="stop-color:#ffc11d;stop-opacity:1;"
         offset="1"
         id="stop7423" /></linearGradient><linearGradient
       inkscape:collect="always"
       xlink:href="#linearGradient7425"
       id="linearGradient7427"
       x1="110.14374"
       y1="158.95555"
       x2="110.14374"
       y2="100.74722"
       gradientUnits="userSpaceOnUse" /><linearGradient
       inkscape:collect="always"
       xlink:href="#linearGradient7425"
       id="linearGradient14830"
       gradientUnits="userSpaceOnUse"
       x1="110.14374"
       y1="158.95555"
       x2="110.14374"
       y2="100.74722" /><clipPath
       clipPathUnits="userSpaceOnUse"
       id="clipPath24346"><path
         id="path24348"
         style="display:none;opacity:1;mix-blend-mode:normal;fill:#000000;fill-opacity:1;stroke:none;stroke-width:2.69403;stroke-dasharray:none;stroke-opacity:1"
         inkscape:label="Feather"
         d="m 136.9564,93.498514 c -17.03966,18.725366 -34.07656,37.453256 -51.117948,56.177036 0,3.32342 0,6.64683 0,9.97024 6.138868,-6.40871 12.063112,-13.0298 18.415938,-19.22801 11.94607,-8.41904 23.89054,-16.84035 35.8376,-25.25798 -0.76912,-7.52383 -1.53787,-15.04769 -2.30862,-22.571356 -0.27566,0.303355 -0.55131,0.606714 -0.82697,0.91007 z" /><path
         id="lpe_path-effect24350"
         style="display:inline;opacity:1;mix-blend-mode:normal;fill:#000000;fill-opacity:1;stroke:none;stroke-width:2.69403;stroke-dasharray:none;stroke-opacity:1"
         class="powerclip"
         d="m 79.957088,99.53522 h 60.896632 v 60.89664 H 79.957088 Z M 136.9564,93.498514 c -17.03966,18.725366 -34.07656,37.453256 -51.117948,56.177036 0,3.32342 0,6.64683 0,9.97024 6.138868,-6.40871 12.063112,-13.0298 18.415938,-19.22801 11.94607,-8.41904 23.89054,-16.84035 35.8376,-25.25798 -0.76912,-7.52383 -1.53787,-15.04769 -2.30862,-22.571356 -0.27566,0.303355 -0.55131,0.606714 -0.82697,0.91007 z" /></clipPath></defs><g
     inkscape:label="Layer 1"
     inkscape:groupmode="layer"
     id="layer1"
     style="display:inline"><g
       id="g4682"
       inkscape:label="quill-old"><image
         width="67.73333"
         height="67.73333"
         preserveAspectRatio="none"
         xlink:href="..%5C..%5C..%5C..%5CDownloads%5CParatext_9.ico"
         id="image71"
         x="78.801247"
         y="93.94677"
         style="display:none"
         sodipodi:insensitive="true" /><g
         id="g4578"
         inkscape:label="first"
         style="display:none"
         sodipodi:insensitive="true"><path
           id="circle1278"
           style="color:#000000;fill:#ffffff"
           d="m 110.40618,98.287024 c -17.479171,-10e-7 -31.697286,14.218126 -31.697289,31.697286 -2e-6,10.25942 4.899956,19.3929 12.480892,25.18916 -0.02619,-0.89707 -0.05235,-1.79423 -0.07855,-2.6913 0.358939,-0.71686 0.717568,-1.43388 1.07642,-2.15078 -5.576965,-4.9943 -9.082135,-12.25228 -9.082133,-20.34708 2e-6,-15.10339 12.197257,-27.30066 27.30066,-27.30066 5.75683,1e-5 11.09039,1.77318 15.48794,4.80281 1.01095,-1.06989 2.02196,-2.13972 3.03289,-3.20962 -5.2131,-3.76655 -11.61144,-5.989815 -18.52083,-5.989816 z m 29.71395,20.663856 c -1.24057,0.88437 -2.48116,1.76871 -3.72174,2.65307 0.84752,2.63976 1.3069,5.45506 1.3069,8.38036 0,15.10341 -12.1957,27.29911 -27.29911,27.29911 -3.67515,0 -7.17742,-0.72411 -10.37456,-2.0345 -0.759744,1.26429 -1.519182,2.52877 -2.27893,3.79305 3.87813,1.69487 8.15731,2.63757 12.65349,2.63757 17.47917,-1e-5 31.69523,-14.21604 31.69522,-31.69523 0,-3.87852 -0.70102,-7.59575 -1.98127,-11.03343 z"
           inkscape:export-filename="pt-react-1024.png"
           inkscape:export-xdpi="410.29449"
           inkscape:export-ydpi="410.29449" /><path
           style="display:inline;fill:#ffffff;fill-opacity:1;stroke:none;stroke-width:2.596;stroke-dasharray:none;stroke-opacity:0.492754"
           d="m 94.936566,156.53451 -0.09235,-3.23228 8.034514,-16.06902 36.57089,-38.694964 2.58583,14.499064 -36.66325,26.13526 z"
           id="path239"
           sodipodi:nodetypes="ccccccc"
           inkscape:label="Feather" /></g><g
         id="g249"
         inkscape:label="second"
         style="display:none"
         sodipodi:insensitive="true"><path
           id="path1115"
           style="fill:#ffffff;stroke:none;stroke-width:2.596;stroke-dasharray:none;stroke-opacity:0.492754"
           inkscape:label="Feather"
           d="m 93.908,157.20385 v -3.23251 l 42.86345,-55.433094 5.264,14.499064 -34.26213,27.79758 z"
           sodipodi:nodetypes="cccccc" /><path
           id="circle6777"
           style="color:#000000;fill:#ffffff"
           d="m 110.40618,98.287024 c -17.479172,0 -31.697289,14.218116 -31.697289,31.697286 0,9.55893 4.252315,18.142 10.964705,23.95771 v -1.42626 c 0.677163,-0.87537 1.354247,-1.75082 2.031401,-2.6262 -5.296043,-4.97576 -8.599475,-12.04627 -8.599475,-19.90525 0,-15.10339 12.197256,-27.30066 27.300658,-27.30066 5.36051,0 10.35391,1.53805 14.56655,4.19561 0.89541,-1.15769 1.79073,-2.31548 2.68614,-3.47317 -4.96776,-3.23587 -10.89386,-5.119066 -17.25269,-5.119066 z M 140.4214,119.7932 c -1.22522,0.99427 -2.45051,1.98851 -3.67574,2.98277 0.62443,2.29568 0.95963,4.71191 0.95963,7.20834 0,15.10341 -12.1957,27.29911 -27.29911,27.29911 -3.36936,0 -6.59352,-0.60852 -9.57047,-1.71927 -0.994321,1.17345 -1.987489,2.3479 -2.980184,3.52278 3.850854,1.66663 8.094254,2.59261 12.550654,2.59261 17.47917,0 31.69522,-14.21604 31.69522,-31.69523 0,-3.56357 -0.59103,-6.99148 -1.68,-10.19111 z"
           inkscape:export-filename="pt-react.svg"
           inkscape:export-xdpi="102.57362"
           inkscape:export-ydpi="102.57362" /></g><g
         id="g6046"
         inkscape:label="original"
         style="display:none"><circle
           style="display:inline;fill:none;stroke:#ffffff;stroke-width:4.396;stroke-dasharray:none;stroke-opacity:1"
           id="circle252"
           cx="110.40533"
           cy="129.98367"
           r="29.498045"
           inkscape:label="Circle"
           sodipodi:insensitive="true" /></g><g
         id="g305"
         inkscape:label="third-POC-final-presentation"
         style="display:none"><path
           id="path301"
           style="fill:#ffffff;stroke:none;stroke-width:2.596;stroke-dasharray:none;stroke-opacity:0.492754"
           inkscape:label="Feather"
           d="m 88.849933,153.23977 v -3.23251 l 46.835497,-51.549594 5.29687,14.176624 -37.82839,25.29855 z"
           sodipodi:nodetypes="cccccc" /><path
           id="circle307"
           style="color:#000000;fill:#ffffff;-inkscape-stroke:none"
           d="m 110.40618,98.287024 c -17.479172,0 -31.697289,14.218116 -31.697289,31.697286 0,7.04318 2.30976,13.55568 6.209957,18.82263 0.997159,-1.09749 2.008639,-2.21 3.007568,-3.30936 -3.040415,-4.40245 -4.820894,-9.74525 -4.820894,-15.51327 0,-15.10339 12.197256,-27.30066 27.300658,-27.30066 4.83264,0 9.3665,1.25054 13.29945,3.44372 1.00412,-1.10487 2.00709,-2.20922 3.01015,-3.31297 -4.76758,-2.87272 -10.34853,-4.527376 -16.3096,-4.527376 z m 29.31501,19.649446 c -1.24294,0.83139 -2.48604,1.66251 -3.72897,2.49391 1.10683,2.97234 1.71307,6.19082 1.71307,9.55393 0,15.10341 -12.1957,27.29911 -27.29911,27.29911 -5.83461,0 -11.234651,-1.82124 -15.666226,-4.92579 -1.002774,1.0738 -2.004802,2.14824 -3.007052,3.22254 5.240852,3.83318 11.696598,6.09937 18.673278,6.09937 17.47917,0 31.69522,-14.21604 31.69522,-31.69523 0,-4.26324 -0.84772,-8.33158 -2.38021,-12.04784 z"
           inkscape:export-filename="pt-react.svg"
           inkscape:export-xdpi="102.57362"
           inkscape:export-ydpi="102.57362" /></g></g><g
       id="g10523"
       inkscape:label="summit-background-dev"
       style="display:none"><g
         id="g7396"
         inkscape:label="sunset"><circle
           style="display:inline;opacity:1;fill:url(#linearGradient7427);fill-opacity:1;stroke:none;stroke-width:4.396;stroke-dasharray:none;stroke-opacity:1"
           id="circle7390"
           cx="110.40533"
           cy="129.98367"
           r="29.498045"
           inkscape:label="Circle" /><circle
           style="display:inline;opacity:1;fill:#ffbd27;fill-opacity:1;stroke:none;stroke-width:3.70417;stroke-dasharray:none;stroke-opacity:1"
           id="path6472"
           cx="113.77082"
           cy="122.89896"
           r="10.715625"
           inkscape:label="sun" /></g><g
         id="g5686"
         inkscape:label="mountains"
         style="mix-blend-mode:normal;fill:#a4a4a4;fill-opacity:1;stroke:#000000;stroke-width:1.7;stroke-dasharray:none;stroke-opacity:1"
         transform="translate(1.0583333,-4.1010417)"><g
           id="g6646"
           inkscape:label="left"
           style="display:inline"><path
             style="opacity:1;fill:#a4a4a4;fill-opacity:1;stroke:#000000;stroke-width:1.7;stroke-dasharray:none;stroke-opacity:1"
             d="m 67.204166,159.94062 23.415624,-28.97187 1.984375,0.26458 2.116667,-2.38125 21.034378,35.45417 -53.313544,0.26458 z"
             id="path4813"
             sodipodi:nodetypes="ccccccc"
             inkscape:label="mountain" /><path
             style="display:inline;opacity:1;mix-blend-mode:normal;fill:none;fill-opacity:1;stroke:#000000;stroke-width:1.7;stroke-dasharray:none;stroke-opacity:1"
             d="m 80.532551,139.99765 9.690365,-3.80338 7.838281,3.93567 7.606763,-3.73723"
             id="path5616"
             sodipodi:nodetypes="cccc"
             inkscape:label="line" /></g><g
           id="g6653"
           inkscape:label="mid"
           style="display:inline"><path
             style="display:inline;opacity:1;fill:#a4a4a4;fill-opacity:1;stroke:#000000;stroke-width:1.7;stroke-dasharray:none;stroke-opacity:1"
             d="m 66.542707,166.02604 40.481253,-44.45 4.36562,1.19063 31.08855,42.7302 z"
             id="path4821"
             sodipodi:nodetypes="ccccc"
             inkscape:label="mountain" /><path
             style="display:inline;opacity:1;mix-blend-mode:normal;fill:none;fill-opacity:1;stroke:#000000;stroke-width:1.7;stroke-dasharray:none;stroke-opacity:1"
             d="m 121.93601,134.47017 -14.32,-2.28672 -4.99401,2.48046 -7.871356,-2.74505"
             id="path6648"
             sodipodi:nodetypes="cccc"
             inkscape:label="line" /></g><g
           id="g6662"
           inkscape:label="right"><path
             style="display:inline;opacity:1;fill:#a4a4a4;fill-opacity:1;stroke:#000000;stroke-width:1.7;stroke-dasharray:none;stroke-opacity:1"
             d="m 100.27708,164.43855 28.17813,-30.03021 23.8125,29.76562 z"
             id="path5549"
             inkscape:label="mountain" /><path
             style="display:inline;opacity:1;mix-blend-mode:normal;fill:none;fill-opacity:1;stroke:#000000;stroke-width:1.7;stroke-dasharray:none;stroke-opacity:1"
             d="m 116.59388,138.64125 6.97759,3.44631 5.12549,-1.53668 10.69373,2.20284"
             id="path6657"
             sodipodi:nodetypes="cccc"
             inkscape:label="line" /></g></g></g><g
       id="g10551"
       inkscape:label="summit-background-cutout-preshrink"
       style="display:none"><g
         id="g10529"
         inkscape:label="sunset"><path
           id="circle10525"
           style="display:inline;opacity:1;fill:url(#linearGradient7427);fill-opacity:1;stroke:none;stroke-width:4.396;stroke-dasharray:none;stroke-opacity:1"
           inkscape:label="Circle"
           d="m 110.40618,104.53522 c -14.102449,0 -25.449092,11.34665 -25.449092,25.44909 0,1.00551 0.05931,1.99652 0.171566,2.97088 1.686683,-2.08655 3.373484,-4.17301 5.060156,-6.25956 0.55787,-1.07905 1.922846,-1.16154 2.972945,-0.91571 0.794823,-0.86183 1.544024,-1.76548 2.341976,-2.62516 0.160808,-0.18034 0.321336,-0.36072 0.482141,-0.54106 0.749666,1.26387 1.499801,2.52765 2.249475,3.7915 3.073083,-3.37166 6.147443,-6.74468 9.211843,-10.11566 0.0729,-0.0801 0.14569,-0.16019 0.21859,-0.24029 h 5.2e-4 c 1.84733,0.50564 3.69509,1.00928 5.54281,1.5136 2.7337,3.7565 5.46721,7.51322 8.20105,11.2696 0.28885,0.39688 0.57777,0.79373 0.86661,1.19062 0.41572,0.57115 0.8312,1.14248 1.24696,1.71359 0.42385,0.58243 0.8479,1.16475 1.27175,1.74718 1.45827,-1.55374 2.91695,-3.1072 4.37493,-4.66121 0.13932,-0.14844 0.27822,-0.29651 0.41755,-0.44494 1.89322,2.36273 3.78478,4.72676 5.67665,7.09053 0.38458,-1.76533 0.58911,-3.59963 0.58911,-5.48391 0,-14.10244 -11.34509,-25.44909 -25.44754,-25.44909 z" /><path
           id="circle10527"
           style="display:inline;opacity:1;fill:#ffbd27;fill-opacity:1;stroke:none;stroke-width:3.70417;stroke-dasharray:none;stroke-opacity:1"
           inkscape:label="sun"
           d="m 113.77083,112.18333 a 10.715625,10.715625 0 0 0 -10.49858,8.69353 c 1.3928,-1.52931 2.78519,-3.05853 4.17494,-4.58732 0.0729,-0.0801 0.14569,-0.16019 0.21859,-0.24029 h 5.2e-4 c 1.84734,0.50564 3.69509,1.00928 5.54281,1.5136 2.7337,3.7565 5.46721,7.51322 8.20105,11.2696 0.20875,0.28681 0.41756,0.5736 0.62632,0.86041 a 10.715625,10.715625 0 0 0 2.44998,-6.7939 10.715625,10.715625 0 0 0 -10.71563,-10.71563 z" /></g><path
         id="path10620"
         style="color:#000000;display:none;mix-blend-mode:normal;fill:#000000;fill-opacity:1;stroke:none;stroke-width:1.7;stroke-dasharray:none;stroke-opacity:1;-inkscape-stroke:none"
         d="m 106.60745,120.15029 c -0.0729,0.0801 -0.14568,0.16022 -0.21859,0.24029 -3.0644,3.37098 -6.13876,6.74399 -9.211846,10.11567 -0.749676,-1.26387 -1.499809,-2.52763 -2.249475,-3.7915 -0.160807,0.18034 -0.321333,0.36071 -0.482141,0.54105 -0.797954,0.85968 -1.547153,1.76333 -2.341976,2.62516 -1.050101,-0.24583 -2.415075,-0.16334 -2.972945,0.91571 -1.762373,2.18021 -3.524621,4.36049 -5.287016,6.54068 -5.06e-4,2e-4 -0.001,3.2e-4 -0.0016,5.2e-4 -6.0046,7.39168 -11.920029,14.85861 -18.014404,22.17436 -2.174287,2.11295 -4.347507,4.22703 -6.5226,6.33915 1.902396,-0.009 3.80475,-0.0187 5.707145,-0.0279 -0.451439,0.49563 -0.902481,0.99162 -1.353922,1.48725 27.10024,-0.18779 54.20076,-0.37652 81.30098,-0.56638 -0.30621,-0.42055 -0.61209,-0.84137 -0.91829,-1.26193 3.61598,-0.0184 7.23194,-0.0364 10.84792,-0.0548 -5.80512,-7.25888 -11.61109,-14.51699 -17.41806,-21.77438 0.002,3.9e-4 0.004,6.4e-4 0.006,10e-4 -2.98247,-3.72521 -5.96326,-7.45156 -8.94725,-11.17554 -0.13933,0.14843 -0.27823,0.29649 -0.41755,0.44493 -1.45798,1.55401 -2.91666,3.10747 -4.37493,4.66121 -0.42385,-0.58243 -0.8479,-1.16475 -1.27175,-1.74718 -0.41576,-0.57111 -0.83124,-1.14244 -1.24696,-1.71359 -0.28884,-0.39689 -0.57776,-0.79374 -0.86661,-1.19062 -2.73384,-3.75638 -5.46735,-7.5131 -8.20105,-11.2696 -1.84772,-0.50432 -3.69546,-1.00796 -5.54281,-1.5136 z"
         transform="translate(1.0583333,-4.1010417)"
         inkscape:label="mountain-sillhouette" /><g
         id="g11440"
         inkscape:label="mountains"
         style="mix-blend-mode:normal;fill:#a4a4a4;fill-opacity:1;stroke:#000000;stroke-width:1.7;stroke-dasharray:none;stroke-opacity:1"
         transform="translate(1.0583333,-4.1010417)"><g
           id="g11426"
           inkscape:label="left"
           style="display:inline"><path
             id="path11422"
             style="color:#000000;display:inline;mix-blend-mode:normal;fill:#989898;fill-opacity:1;stroke:none;stroke-width:1.7;stroke-dasharray:none;stroke-opacity:1"
             d="m 90.179508,137.12496 -5.041035,1.97869 -0.592729,0.73329 c 0.267424,1.16676 0.615751,2.30184 1.036629,3.40031 1.754397,-1.92586 3.507772,-3.85267 5.261694,-5.77897 z" /><path
             id="path11424"
             style="color:#000000;display:inline;mix-blend-mode:normal;fill:#e7e7e7;fill-opacity:1;stroke:none;stroke-width:1.7;stroke-dasharray:none;stroke-opacity:1;-inkscape-stroke:none"
             d="m 94.583891,130.28507 -1.644344,1.8495 -1.959054,-0.25942 -3.679879,4.5527 2.965194,-1.16427 1.768884,0.88883 c 1.216904,-1.33671 2.433911,-2.67354 3.650424,-4.0106 z" /></g><g
           id="g11432"
           inkscape:label="mid"
           style="display:inline"><path
             id="path11428"
             style="color:#000000;display:inline;mix-blend-mode:normal;fill:#989898;fill-opacity:1;stroke:none;stroke-width:1.7;stroke-dasharray:none;stroke-opacity:1"
             d="m 107.75001,133.0663 -5.07049,2.51767 -5.511808,-1.92288 -10.656713,11.7011 c 4.143103,8.41128 12.789745,14.17071 22.836851,14.17071 8.34674,0 15.72671,-3.97519 20.36103,-10.14305 l -10.55285,-14.50351 z" /><path
             style="color:#000000;display:inline;mix-blend-mode:normal;fill:#e7e7e7;fill-opacity:1;stroke:none;stroke-width:1.7;stroke-dasharray:none;stroke-opacity:1;-inkscape-stroke:none"
             d="m 107.30249,122.53309 -8.891443,9.76271 4.153233,1.44849 4.91805,-2.44326 10.25674,1.63814 -6.86212,-9.43146 z"
             id="path11430" /></g><g
           id="g11438"
           inkscape:label="right"
           style="display:inline"><path
             id="path11434"
             style="color:#000000;display:inline;mix-blend-mode:normal;fill:#989898;fill-opacity:1;stroke:none;stroke-width:1.7;stroke-dasharray:none;stroke-opacity:1"
             d="m 128.73633,141.42599 -1.81074,0.54312 c 1.34905,1.85407 2.69779,3.70835 4.04678,5.56245 0.99497,-1.60279 1.81778,-3.32495 2.44068,-5.1418 z" /><path
             id="path11436"
             style="color:#000000;display:inline;mix-blend-mode:normal;fill:#e7e7e7;fill-opacity:1;stroke:none;stroke-width:1.7;stroke-dasharray:none;stroke-opacity:1;-inkscape-stroke:none"
             d="m 128.40405,135.7049 -3.39979,3.62355 c 0.28728,0.39483 0.57467,0.78959 0.86196,1.18442 l 2.79208,-0.83716 3.49901,0.72089 z" /></g></g><path
         id="path14019"
         style="color:#000000;display:none;mix-blend-mode:normal;fill:#989898;fill-opacity:1;stroke:none;stroke-width:1.7;stroke-dasharray:none;stroke-opacity:1"
         d="m 106.60745,120.15029 c -0.0729,0.0801 -0.14568,0.16022 -0.21859,0.24029 -3.27449,3.60209 -6.560338,7.20665 -9.843849,10.80916 -6.67e-4,-2.3e-4 -0.0014,-2.8e-4 -0.0021,-5.1e-4 -4.184767,4.60018 -8.372304,9.19794 -12.560473,13.79502 3.783877,8.87259 12.508966,15.45605 22.124752,16.47186 9.15903,1.11518 18.81766,-2.66885 24.58196,-9.91825 0.57404,-0.69035 1.11002,-1.41124 1.66605,-2.11615 -3.29675,-4.53143 -6.59406,-9.06262 -9.89087,-13.59401 1.7e-4,3e-5 3.5e-4,-2e-5 5.2e-4,0 -0.70466,-0.96796 -1.40903,-1.93616 -2.11357,-2.90421 -2.73384,-3.75638 -5.46735,-7.5131 -8.20105,-11.2696 -1.84772,-0.50432 -3.69546,-1.00796 -5.54281,-1.5136 z"
         transform="translate(1.0583333,-4.1010417)"
         inkscape:label="mid-sillhouette" /></g><g
       id="g14810"
       inkscape:label="summit-background-cutout"
       style="display:none"
       transform="matrix(0.96361089,0,0,0.96361089,4.0175548,4.7299858)"
       clip-path="url(#clipPath24346)"
       inkscape:path-effect="#path-effect24350"><g
         id="g14784"
         inkscape:label="sunset"
         style="display:inline"><path
           id="path14780"
           style="display:inline;opacity:1;fill:url(#linearGradient14830);fill-opacity:1;stroke:none;stroke-width:4.396;stroke-dasharray:none;stroke-opacity:1"
           inkscape:label="Circle"
           d="m 110.40618,104.53522 c -14.102449,0 -25.449092,11.34665 -25.449092,25.44909 0,1.00551 0.05931,1.99652 0.171566,2.97088 1.686683,-2.08655 3.373484,-4.17301 5.060156,-6.25956 0.55787,-1.07905 1.922846,-1.16154 2.972945,-0.91571 0.794823,-0.86183 1.544024,-1.76548 2.341976,-2.62516 0.160808,-0.18034 0.321336,-0.36072 0.482141,-0.54106 0.749666,1.26387 1.499801,2.52765 2.249475,3.7915 3.073083,-3.37166 6.147443,-6.74468 9.211843,-10.11566 0.0729,-0.0801 0.14569,-0.16019 0.21859,-0.24029 h 5.2e-4 c 1.84733,0.50564 3.69509,1.00928 5.54281,1.5136 2.7337,3.7565 5.46721,7.51322 8.20105,11.2696 0.28885,0.39688 0.57777,0.79373 0.86661,1.19062 0.41572,0.57115 0.8312,1.14248 1.24696,1.71359 0.42385,0.58243 0.8479,1.16475 1.27175,1.74718 1.45827,-1.55374 2.91695,-3.1072 4.37493,-4.66121 0.13932,-0.14844 0.27822,-0.29651 0.41755,-0.44494 1.89322,2.36273 3.78478,4.72676 5.67665,7.09053 0.38458,-1.76533 0.58911,-3.59963 0.58911,-5.48391 0,-14.10244 -11.34509,-25.44909 -25.44754,-25.44909 z"
           inkscape:original-d="m 110.40618,104.53522 c -14.102449,0 -25.449092,11.34665 -25.449092,25.44909 0,1.00551 0.05931,1.99652 0.171566,2.97088 1.686683,-2.08655 3.373484,-4.17301 5.060156,-6.25956 0.55787,-1.07905 1.922846,-1.16154 2.972945,-0.91571 0.794823,-0.86183 1.544024,-1.76548 2.341976,-2.62516 0.160808,-0.18034 0.321336,-0.36072 0.482141,-0.54106 0.749666,1.26387 1.499801,2.52765 2.249475,3.7915 3.073083,-3.37166 6.147443,-6.74468 9.211843,-10.11566 0.0729,-0.0801 0.14569,-0.16019 0.21859,-0.24029 h 5.2e-4 c 1.84733,0.50564 3.69509,1.00928 5.54281,1.5136 2.7337,3.7565 5.46721,7.51322 8.20105,11.2696 0.28885,0.39688 0.57777,0.79373 0.86661,1.19062 0.41572,0.57115 0.8312,1.14248 1.24696,1.71359 0.42385,0.58243 0.8479,1.16475 1.27175,1.74718 1.45827,-1.55374 2.91695,-3.1072 4.37493,-4.66121 0.13932,-0.14844 0.27822,-0.29651 0.41755,-0.44494 1.89322,2.36273 3.78478,4.72676 5.67665,7.09053 0.38458,-1.76533 0.58911,-3.59963 0.58911,-5.48391 0,-14.10244 -11.34509,-25.44909 -25.44754,-25.44909 z" /><path
           id="path14782"
           style="display:inline;opacity:1;fill:#ffbd27;fill-opacity:1;stroke:none;stroke-width:3.70417;stroke-dasharray:none;stroke-opacity:1"
           inkscape:label="sun"
           d="m 113.77083,112.18333 a 10.715625,10.715625 0 0 0 -10.49858,8.69353 c 1.3928,-1.52931 2.78519,-3.05853 4.17494,-4.58732 0.0729,-0.0801 0.14569,-0.16019 0.21859,-0.24029 h 5.2e-4 c 1.84734,0.50564 3.69509,1.00928 5.54281,1.5136 2.7337,3.7565 5.46721,7.51322 8.20105,11.2696 0.20875,0.28681 0.41756,0.5736 0.62632,0.86041 a 10.715625,10.715625 0 0 0 2.44998,-6.7939 10.715625,10.715625 0 0 0 -10.71563,-10.71563 z"
           inkscape:original-d="m 113.77083,112.18333 a 10.715625,10.715625 0 0 0 -10.49858,8.69353 c 1.3928,-1.52931 2.78519,-3.05853 4.17494,-4.58732 0.0729,-0.0801 0.14569,-0.16019 0.21859,-0.24029 h 5.2e-4 c 1.84734,0.50564 3.69509,1.00928 5.54281,1.5136 2.7337,3.7565 5.46721,7.51322 8.20105,11.2696 0.20875,0.28681 0.41756,0.5736 0.62632,0.86041 a 10.715625,10.715625 0 0 0 2.44998,-6.7939 10.715625,10.715625 0 0 0 -10.71563,-10.71563 z" /></g><path
         id="path14786"
         style="color:#000000;display:none;mix-blend-mode:normal;fill:#000000;fill-opacity:1;stroke:none;stroke-width:1.7;stroke-dasharray:none;stroke-opacity:1"
         d="m 106.60745,120.15029 c -0.0729,0.0801 -0.14568,0.16022 -0.21859,0.24029 -3.0644,3.37098 -6.13876,6.74399 -9.211846,10.11567 -0.749676,-1.26387 -1.499809,-2.52763 -2.249475,-3.7915 -0.160807,0.18034 -0.321333,0.36071 -0.482141,0.54105 -0.797954,0.85968 -1.547153,1.76333 -2.341976,2.62516 -1.050101,-0.24583 -2.415075,-0.16334 -2.972945,0.91571 -1.762373,2.18021 -3.524621,4.36049 -5.287016,6.54068 -5.06e-4,2e-4 -0.001,3.2e-4 -0.0016,5.2e-4 -6.0046,7.39168 -11.920029,14.85861 -18.014404,22.17436 -2.174287,2.11295 -4.347507,4.22703 -6.5226,6.33915 1.902396,-0.009 3.80475,-0.0187 5.707145,-0.0279 -0.451439,0.49563 -0.902481,0.99162 -1.353922,1.48725 27.10024,-0.18779 54.20076,-0.37652 81.30098,-0.56638 -0.30621,-0.42055 -0.61209,-0.84137 -0.91829,-1.26193 3.61598,-0.0184 7.23194,-0.0364 10.84792,-0.0548 -5.80512,-7.25888 -11.61109,-14.51699 -17.41806,-21.77438 0.002,3.9e-4 0.004,6.4e-4 0.006,10e-4 -2.98247,-3.72521 -5.96326,-7.45156 -8.94725,-11.17554 -0.13933,0.14843 -0.27823,0.29649 -0.41755,0.44493 -1.45798,1.55401 -2.91666,3.10747 -4.37493,4.66121 -0.42385,-0.58243 -0.8479,-1.16475 -1.27175,-1.74718 -0.41576,-0.57111 -0.83124,-1.14244 -1.24696,-1.71359 -0.28884,-0.39689 -0.57776,-0.79374 -0.86661,-1.19062 -2.73384,-3.75638 -5.46735,-7.5131 -8.20105,-11.2696 -1.84772,-0.50432 -3.69546,-1.00796 -5.54281,-1.5136 z"
         transform="translate(1.0583333,-4.1010417)"
         inkscape:label="mountain-sillhouette"
         inkscape:original-d="m 106.60745,120.15029 c -0.0729,0.0801 -0.14568,0.16022 -0.21859,0.24029 -3.0644,3.37098 -6.13876,6.74399 -9.211846,10.11567 -0.749676,-1.26387 -1.499809,-2.52763 -2.249475,-3.7915 -0.160807,0.18034 -0.321333,0.36071 -0.482141,0.54105 -0.797954,0.85968 -1.547153,1.76333 -2.341976,2.62516 -1.050101,-0.24583 -2.415075,-0.16334 -2.972945,0.91571 -1.762373,2.18021 -3.524621,4.36049 -5.287016,6.54068 -5.06e-4,2e-4 -0.001,3.2e-4 -0.0016,5.2e-4 -6.0046,7.39168 -11.920029,14.85861 -18.014404,22.17436 -2.174287,2.11295 -4.347507,4.22703 -6.5226,6.33915 1.902396,-0.009 3.80475,-0.0187 5.707145,-0.0279 -0.451439,0.49563 -0.902481,0.99162 -1.353922,1.48725 27.10024,-0.18779 54.20076,-0.37652 81.30098,-0.56638 -0.30621,-0.42055 -0.61209,-0.84137 -0.91829,-1.26193 3.61598,-0.0184 7.23194,-0.0364 10.84792,-0.0548 -5.80512,-7.25888 -11.61109,-14.51699 -17.41806,-21.77438 0.002,3.9e-4 0.004,6.4e-4 0.006,10e-4 -2.98247,-3.72521 -5.96326,-7.45156 -8.94725,-11.17554 -0.13933,0.14843 -0.27823,0.29649 -0.41755,0.44493 -1.45798,1.55401 -2.91666,3.10747 -4.37493,4.66121 -0.42385,-0.58243 -0.8479,-1.16475 -1.27175,-1.74718 -0.41576,-0.57111 -0.83124,-1.14244 -1.24696,-1.71359 -0.28884,-0.39689 -0.57776,-0.79374 -0.86661,-1.19062 -2.73384,-3.75638 -5.46735,-7.5131 -8.20105,-11.2696 -1.84772,-0.50432 -3.69546,-1.00796 -5.54281,-1.5136 z" /><g
         id="g14806"
         inkscape:label="mountains"
         style="display:inline;mix-blend-mode:normal;fill:#a4a4a4;fill-opacity:1;stroke:#000000;stroke-width:1.7;stroke-dasharray:none;stroke-opacity:1"
         transform="translate(1.0583333,-4.1010417)"><g
           id="g14792"
           inkscape:label="left"
           style="display:inline"><path
             id="path14788"
             style="color:#000000;display:inline;mix-blend-mode:normal;fill:#989898;fill-opacity:1;stroke:none;stroke-width:1.7;stroke-dasharray:none;stroke-opacity:1"
             d="m 90.179508,137.12496 -5.041035,1.97869 -0.592729,0.73329 c 0.267424,1.16676 0.615751,2.30184 1.036629,3.40031 1.754397,-1.92586 3.507772,-3.85267 5.261694,-5.77897 z"
             inkscape:original-d="m 90.179508,137.12496 -5.041035,1.97869 -0.592729,0.73329 c 0.267424,1.16676 0.615751,2.30184 1.036629,3.40031 1.754397,-1.92586 3.507772,-3.85267 5.261694,-5.77897 z" /><path
             id="path14790"
             style="color:#000000;display:inline;mix-blend-mode:normal;fill:#e7e7e7;fill-opacity:1;stroke:none;stroke-width:1.7;stroke-dasharray:none;stroke-opacity:1"
             d="m 94.583891,130.28507 -1.644344,1.8495 -1.959054,-0.25942 -3.679879,4.5527 2.965194,-1.16427 1.768884,0.88883 c 1.216904,-1.33671 2.433911,-2.67354 3.650424,-4.0106 z"
             inkscape:original-d="m 94.583891,130.28507 -1.644344,1.8495 -1.959054,-0.25942 -3.679879,4.5527 2.965194,-1.16427 1.768884,0.88883 c 1.216904,-1.33671 2.433911,-2.67354 3.650424,-4.0106 z" /></g><g
           id="g14798"
           inkscape:label="mid"
           style="display:inline"><path
             id="path14794"
             style="color:#000000;display:inline;mix-blend-mode:normal;fill:#989898;fill-opacity:1;stroke:none;stroke-width:1.7;stroke-dasharray:none;stroke-opacity:1"
             d="m 107.75001,133.0663 -5.07049,2.51767 -5.511808,-1.92288 -10.656713,11.7011 c 4.143103,8.41128 12.789745,14.17071 22.836851,14.17071 8.34674,0 15.72671,-3.97519 20.36103,-10.14305 l -10.55285,-14.50351 z"
             inkscape:original-d="m 107.75001,133.0663 -5.07049,2.51767 -5.511808,-1.92288 -10.656713,11.7011 c 4.143103,8.41128 12.789745,14.17071 22.836851,14.17071 8.34674,0 15.72671,-3.97519 20.36103,-10.14305 l -10.55285,-14.50351 z" /><path
             style="color:#000000;display:inline;mix-blend-mode:normal;fill:#e7e7e7;fill-opacity:1;stroke:none;stroke-width:1.7;stroke-dasharray:none;stroke-opacity:1"
             d="m 107.30249,122.53309 -8.891443,9.76271 4.153233,1.44849 4.91805,-2.44326 10.25674,1.63814 -6.86212,-9.43146 z"
             id="path14796"
             inkscape:original-d="m 107.30249,122.53309 -8.891443,9.76271 4.153233,1.44849 4.91805,-2.44326 10.25674,1.63814 -6.86212,-9.43146 z" /></g><g
           id="g14804"
           inkscape:label="right"
           style="display:inline"><path
             id="path14800"
             style="color:#000000;display:inline;mix-blend-mode:normal;fill:#989898;fill-opacity:1;stroke:none;stroke-width:1.7;stroke-dasharray:none;stroke-opacity:1"
             d="m 128.73633,141.42599 -1.81074,0.54312 c 1.34905,1.85407 2.69779,3.70835 4.04678,5.56245 0.99497,-1.60279 1.81778,-3.32495 2.44068,-5.1418 z"
             inkscape:original-d="m 128.73633,141.42599 -1.81074,0.54312 c 1.34905,1.85407 2.69779,3.70835 4.04678,5.56245 0.99497,-1.60279 1.81778,-3.32495 2.44068,-5.1418 z" /><path
             id="path14802"
             style="color:#000000;display:inline;mix-blend-mode:normal;fill:#e7e7e7;fill-opacity:1;stroke:none;stroke-width:1.7;stroke-dasharray:none;stroke-opacity:1"
             d="m 128.40405,135.7049 -3.39979,3.62355 c 0.28728,0.39483 0.57467,0.78959 0.86196,1.18442 l 2.79208,-0.83716 3.49901,0.72089 z"
             inkscape:original-d="m 128.40405,135.7049 -3.39979,3.62355 c 0.28728,0.39483 0.57467,0.78959 0.86196,1.18442 l 2.79208,-0.83716 3.49901,0.72089 z" /></g></g><path
         id="path14808"
         style="color:#000000;display:none;mix-blend-mode:normal;fill:#989898;fill-opacity:1;stroke:none;stroke-width:1.7;stroke-dasharray:none;stroke-opacity:1"
         d="m 106.60745,120.15029 c -0.0729,0.0801 -0.14568,0.16022 -0.21859,0.24029 -3.27449,3.60209 -6.560338,7.20665 -9.843849,10.80916 -6.67e-4,-2.3e-4 -0.0014,-2.8e-4 -0.0021,-5.1e-4 -4.184767,4.60018 -8.372304,9.19794 -12.560473,13.79502 3.783877,8.87259 12.508966,15.45605 22.124752,16.47186 9.15903,1.11518 18.81766,-2.66885 24.58196,-9.91825 0.57404,-0.69035 1.11002,-1.41124 1.66605,-2.11615 -3.29675,-4.53143 -6.59406,-9.06262 -9.89087,-13.59401 1.7e-4,3e-5 3.5e-4,-2e-5 5.2e-4,0 -0.70466,-0.96796 -1.40903,-1.93616 -2.11357,-2.90421 -2.73384,-3.75638 -5.46735,-7.5131 -8.20105,-11.2696 -1.84772,-0.50432 -3.69546,-1.00796 -5.54281,-1.5136 z"
         transform="translate(1.0583333,-4.1010417)"
         inkscape:label="mid-sillhouette"
         inkscape:original-d="m 106.60745,120.15029 c -0.0729,0.0801 -0.14568,0.16022 -0.21859,0.24029 -3.27449,3.60209 -6.560338,7.20665 -9.843849,10.80916 -6.67e-4,-2.3e-4 -0.0014,-2.8e-4 -0.0021,-5.1e-4 -4.184767,4.60018 -8.372304,9.19794 -12.560473,13.79502 3.783877,8.87259 12.508966,15.45605 22.124752,16.47186 9.15903,1.11518 18.81766,-2.66885 24.58196,-9.91825 0.57404,-0.69035 1.11002,-1.41124 1.66605,-2.11615 -3.29675,-4.53143 -6.59406,-9.06262 -9.89087,-13.59401 1.7e-4,3e-5 3.5e-4,-2e-5 5.2e-4,0 -0.70466,-0.96796 -1.40903,-1.93616 -2.11357,-2.90421 -2.73384,-3.75638 -5.46735,-7.5131 -8.20105,-11.2696 -1.84772,-0.50432 -3.69546,-1.00796 -5.54281,-1.5136 z" /></g><g
       id="g250"
       inkscape:label="fourth-fixed-quill"
       style="display:inline;opacity:1"
       sodipodi:insensitive="true"
       inkscape:export-filename="pt-react.png"
       inkscape:export-xdpi="410.29449"
       inkscape:export-ydpi="410.29449"><circle
         style="display:none;fill:none;stroke:#ffffff;stroke-width:4.396;stroke-dasharray:none;stroke-opacity:1"
         id="path335"
         cx="110.40533"
         cy="129.98367"
         r="29.498045"
         inkscape:label="Circle"
         sodipodi:insensitive="true" /><path
         id="path245"
         style="display:none;fill:#ffffff;stroke:none;stroke-width:2.596;stroke-dasharray:none;stroke-opacity:0.492754"
         inkscape:label="Feather-old"
         d="M 88.849933,153.23977 V 149.786 l 46.835497,-51.549598 5.29687,14.397888 -38.68179,26.35108 z"
         sodipodi:nodetypes="cccccc"
         sodipodi:insensitive="true" /><path
         id="path406"
         style="display:none;fill:#ffffff;stroke:none;stroke-width:2.596;stroke-dasharray:none;stroke-opacity:0.492754"
         inkscape:label="Feather-old-2"
         d="M 88.849933,153.23977 V 149.786 l 46.312507,-50.90592 2.6205,14.87256 -35.48243,25.23273 z"
         sodipodi:nodetypes="cccccc"
         sodipodi:insensitive="true" /><path
         id="path409"
         style="display:inline;opacity:1;mix-blend-mode:normal;fill:#ffffff;stroke:none;stroke-width:2.596;stroke-dasharray:none;stroke-opacity:1"
         inkscape:label="Feather"
         d="M 88.849933,153.23977 V 149.786 l 46.312507,-50.90592 1.61475,15.79784 -34.47668,24.30745 z"
         sodipodi:nodetypes="cccccc" /><path
         id="circle3907"
         style="color:#000000;display:inline;fill:#ffffff"
         d="m 110.40618,98.287024 c -17.479172,0 -31.697289,14.218116 -31.697289,31.697286 0,6.99298 2.277435,13.46244 6.127274,18.70946 0.996516,-1.09505 2.012256,-2.21215 3.011186,-3.30988 -2.992556,-4.38053 -4.741829,-9.68134 -4.741829,-15.39958 0,-15.10339 12.197256,-27.30066 27.300658,-27.30066 4.79393,0 9.29389,1.23043 13.20488,3.39101 1.00594,-1.10578 2.01029,-2.20925 3.0148,-3.31349 -4.74785,-2.839561 -10.29591,-4.474146 -16.21968,-4.474146 z m 29.05352,19.033466 c -1.22276,0.86163 -2.44527,1.72367 -3.66799,2.58537 1.23468,3.1167 1.91358,6.51666 1.91358,10.07845 0,15.10341 -12.1957,27.29911 -27.29911,27.29911 -5.8294,0 -11.224992,-1.81803 -15.654341,-4.91753 -1.006324,1.07128 -2.011457,2.14364 -3.01687,3.21583 5.240479,3.83225 11.695451,6.09782 18.671211,6.09782 17.47917,0 31.69522,-14.21604 31.69522,-31.69523 0,-4.50012 -0.94402,-8.783 -2.6417,-12.66382 z" /></g></g></svg>
