<svg width="905" height="244" viewBox="0 0 905 244" fill="none" xmlns="http://www.w3.org/2000/svg">
<path d="M284.267 177H269.903V57.642H317.441C338.816 57.642 350.786 70.809 350.786 91.842C350.786 112.875 338.816 126.042 317.441 126.042H284.267V177ZM284.267 70.296V113.388H317.441C328.727 113.388 335.396 107.232 335.396 96.288V87.396C335.396 76.452 328.727 70.296 317.441 70.296H284.267ZM397.203 177H385.062C375.657 177 370.527 171.015 370.527 162.807V50.46H384.207V165.03H397.203V177ZM487.228 177H479.533C469.444 177 465.34 170.844 464.314 162.636H463.459C459.697 173.409 450.292 179.052 437.98 179.052C419.341 179.052 408.397 168.792 408.397 152.376C408.397 135.789 420.367 126.555 446.017 126.555H463.459V117.834C463.459 105.351 456.619 98.511 442.597 98.511C431.995 98.511 424.984 103.641 420.196 111.678L411.988 103.983C416.776 94.578 427.378 86.712 443.281 86.712C464.485 86.712 477.139 97.827 477.139 116.466V165.03H487.228V177ZM440.203 167.424C453.712 167.424 463.459 160.413 463.459 151.35V136.815H445.333C429.772 136.815 422.761 141.603 422.761 150.153V153.744C422.761 162.465 429.601 167.424 440.203 167.424ZM541.637 177H524.537C515.132 177 510.002 171.015 510.002 162.465V100.734H495.467V88.764H503.675C509.489 88.764 511.37 86.712 511.37 80.727V64.311H523.682V88.764H543.005V100.734H523.682V165.03H541.637V177ZM566.401 177V100.734H552.037V88.764H566.401V70.98C566.401 58.839 572.728 50.46 585.724 50.46H599.062V62.43H580.081V88.764H599.062V100.734H580.081V177H566.401ZM648.021 179.052C624.423 179.052 608.178 160.926 608.178 132.882C608.178 104.838 624.423 86.712 648.021 86.712C671.619 86.712 687.864 104.838 687.864 132.882C687.864 160.926 671.619 179.052 648.021 179.052ZM648.021 166.911C662.727 166.911 673.158 157.848 673.158 139.209V126.555C673.158 107.916 662.727 98.853 648.021 98.853C633.315 98.853 622.884 107.916 622.884 126.555V139.209C622.884 157.848 633.315 166.911 648.021 166.911ZM722.333 177H708.653V88.764H722.333V105.009H723.188C726.266 96.63 734.303 88.764 748.667 88.764H753.968V102.444H745.931C731.225 102.444 722.333 108.771 722.333 117.15V177ZM783.412 177H769.732V88.764H783.412V103.128H784.096C788.029 94.065 794.185 86.712 807.865 86.712C819.493 86.712 830.095 92.013 834.883 104.667H835.225C838.474 95.091 847.024 86.712 862.072 86.712C880.027 86.712 890.8 99.024 890.8 120.399V177H877.12V122.793C877.12 107.232 871.135 99.024 857.797 99.024C847.024 99.024 837.106 104.496 837.106 115.782V177H823.426V122.793C823.426 107.061 817.441 99.024 804.445 99.024C793.672 99.024 783.412 104.496 783.412 115.782V177Z" fill="#0A403A"/>
<path fill-rule="evenodd" clip-rule="evenodd" d="M126 140C126 140 118.077 140 113 140C102 128 96.0002 113 96 96.0001C95.9998 79.0001 104.931 59.3748 119.5 45.0001C134.264 59.566 143 79.0001 143 96.0001C143 113 136 128 126 140ZM120 63.0001H119C112 69.0001 107 83.2573 107 93.0001V99.0001C107 109.762 112 120 119 129H120C128 120 132 109.762 132 99.0001V93.0001C132 83.2573 128 70.0001 120 63.0001Z" fill="#0A403A"/>
<path d="M126 140L119.5 147C119.5 147 115.538 142.734 113 140C118.077 140 126 140 126 140Z" fill="#0A403A"/>
<path fill-rule="evenodd" clip-rule="evenodd" d="M81.0003 164.875C122 164.875 120 185.875 120 185.875H121C121 185.875 119 164.875 160 164.875H207V176.875H157.5C125.5 176.875 128 199.875 128 200.875H113.001C113.001 199.875 115.001 176.875 83.5004 176.875H34V164.875H81.0003Z" fill="#0A403A"/>
</svg>
