<?xml version="1.0" encoding="UTF-8" standalone="no"?>
<!-- Created with Inkscape (http://www.inkscape.org/) -->

<svg
   width="86.120003mm"
   height="86.120003mm"
   viewBox="0 0 86.120003 86.120003"
   version="1.1"
   id="svg33074"
   inkscape:version="1.2.2 (b0a8486541, 2022-12-01)"
   sodipodi:docname="Offline.svg"
   xmlns:inkscape="http://www.inkscape.org/namespaces/inkscape"
   xmlns:sodipodi="http://sodipodi.sourceforge.net/DTD/sodipodi-0.dtd"
   xmlns:xlink="http://www.w3.org/1999/xlink"
   xmlns="http://www.w3.org/2000/svg"
   xmlns:svg="http://www.w3.org/2000/svg">
  <sodipodi:namedview
     id="namedview33076"
     pagecolor="#505050"
     bordercolor="#eeeeee"
     borderopacity="1"
     inkscape:showpageshadow="0"
     inkscape:pageopacity="0"
     inkscape:pagecheckerboard="0"
     inkscape:deskcolor="#505050"
     inkscape:document-units="mm"
     showgrid="false"
     inkscape:zoom="1.0885159"
     inkscape:cx="136.42428"
     inkscape:cy="113.45723"
     inkscape:window-width="1920"
     inkscape:window-height="991"
     inkscape:window-x="-9"
     inkscape:window-y="-9"
     inkscape:window-maximized="1"
     inkscape:current-layer="layer1" />
  <defs
     id="defs33071">
    <inkscape:path-effect
       effect="powerclip"
       id="path-effect35347"
       is_visible="true"
       lpeversion="1"
       inverse="true"
       flatten="false"
       hide_clip="false"
       message="Use fill-rule evenodd on &lt;b&gt;fill and stroke&lt;/b&gt; dialog if no flatten result after convert clip to paths." />
    <filter
       id="mask-powermask-path-effect35294_inverse"
       inkscape:label="filtermask-powermask-path-effect35294"
       style="color-interpolation-filters:sRGB"
       height="100"
       width="100"
       x="-50"
       y="-50">
      <feColorMatrix
         id="mask-powermask-path-effect35294_primitive1"
         values="1"
         type="saturate"
         result="fbSourceGraphic" />
      <feColorMatrix
         id="mask-powermask-path-effect35294_primitive2"
         values="-1 0 0 0 1 0 -1 0 0 1 0 0 -1 0 1 0 0 0 1 0 "
         in="fbSourceGraphic" />
    </filter>
    <filter
       id="mask-powermask-path-effect35317_inverse"
       inkscape:label="filtermask-powermask-path-effect35317"
       style="color-interpolation-filters:sRGB"
       height="100"
       width="100"
       x="-50"
       y="-50">
      <feColorMatrix
         id="mask-powermask-path-effect35317_primitive1"
         values="1"
         type="saturate"
         result="fbSourceGraphic" />
      <feColorMatrix
         id="mask-powermask-path-effect35317_primitive2"
         values="-1 0 0 0 1 0 -1 0 0 1 0 0 -1 0 1 0 0 0 1 0 "
         in="fbSourceGraphic" />
    </filter>
    <filter
       id="mask-powermask-path-effect35327_inverse"
       inkscape:label="filtermask-powermask-path-effect35327"
       style="color-interpolation-filters:sRGB"
       height="100"
       width="100"
       x="-50"
       y="-50">
      <feColorMatrix
         id="mask-powermask-path-effect35327_primitive1"
         values="1"
         type="saturate"
         result="fbSourceGraphic" />
      <feColorMatrix
         id="mask-powermask-path-effect35327_primitive2"
         values="-1 0 0 0 1 0 -1 0 0 1 0 0 -1 0 1 0 0 0 1 0 "
         in="fbSourceGraphic" />
    </filter>
    <clipPath
       clipPathUnits="userSpaceOnUse"
       id="clipPath35343">
      <path
         style="display:none;fill:#ffffff;stroke:none;stroke-width:10;stroke-dasharray:none"
         sodipodi:type="inkscape:offset"
         inkscape:radius="4.9217505"
         inkscape:original="M 136.50781 71.113281 L 82.304688 125.31836 L 88.867188 131.88086 L 143.07031 77.675781 L 136.50781 71.113281 z "
         xlink:href="#rect35224"
         id="path35345"
         inkscape:href="#rect35224"
         d="m 136.50781,66.191406 a 4.9222427,4.9222427 0 0 0 -3.48047,1.441406 L 78.824219,121.83789 a 4.9222427,4.9222427 0 0 0 0,6.96094 l 6.5625,6.5625 a 4.9222427,4.9222427 0 0 0 6.960937,0 L 146.55078,81.15625 a 4.9222427,4.9222427 0 0 0 0,-6.960938 l -6.5625,-6.5625 a 4.9222427,4.9222427 0 0 0 -3.48047,-1.441406 z" />
      <path
         id="lpe_path-effect35347"
         style="fill:#ffffff;stroke:none;stroke-width:10;stroke-dasharray:none"
         class="powerclip"
         d="m 62.22122,67.625024 h 96.12032 V 140.18233 H 62.22122 Z m 74.28659,-1.433618 a 4.9222427,4.9222427 0 0 0 -3.48047,1.441406 L 78.824219,121.83789 a 4.9222427,4.9222427 0 0 0 0,6.96094 l 6.5625,6.5625 a 4.9222427,4.9222427 0 0 0 6.960937,0 L 146.55078,81.15625 a 4.9222427,4.9222427 0 0 0 0,-6.960938 l -6.5625,-6.5625 a 4.9222427,4.9222427 0 0 0 -3.48047,-1.441406 z" />
    </clipPath>
  </defs>
  <g
     inkscape:label="Layer 1"
     inkscape:groupmode="layer"
     id="layer1"
     transform="translate(-67.22122,-60.088122)">
    <g
       id="g35228"
       clip-path="url(#clipPath35343)"
       inkscape:path-effect="#path-effect35347"
       inkscape:export-filename="Offline.png"
       inkscape:export-xdpi="96"
       inkscape:export-ydpi="96">
      <circle
         style="fill:#000000;stroke-width:9.30169"
         id="path33247"
         cx="110.28125"
         cy="128.5"
         r="6.6823287"
         d="m 116.96358,128.5 a 6.6823287,6.6823287 0 0 1 -6.68233,6.68233 6.6823287,6.6823287 0 0 1 -6.68233,-6.68233 6.6823287,6.6823287 0 0 1 6.68233,-6.68233 6.6823287,6.6823287 0 0 1 6.68233,6.68233 z" />
      <path
         id="path35074"
         style="color:#000000;fill:#000000;-inkscape-stroke:none"
         d="m 110.28112,72.625024 c -17.304551,0 -32.801312,7.91612 -43.0599,20.315039 l 7.067786,7.067787 C 82.68131,89.409007 95.666412,82.624931 110.28112,82.624931 c 14.61462,0 27.59981,6.784197 35.99212,17.382919 l 7.0683,-7.068303 C 143.08296,80.540802 127.58554,72.625024 110.28112,72.625024 Z m 0,15.812472 c -12.938379,0 -24.47485,6.188604 -31.807357,15.755114 l 7.116878,7.11687 c 5.419919,-7.7901 14.434089,-12.872078 24.690479,-12.872078 10.25628,0 19.27106,5.081608 24.691,12.871568 l 7.11636,-7.11636 C 134.75597,94.626174 123.21945,88.437496 110.28112,88.437496 Z m 0,15.984554 c -8.52825,0 -16.055578,4.50168 -20.336223,11.24169 l 7.349423,7.34942 c 2.119086,-5.07071 7.10418,-8.59121 12.9868,-8.5912 5.88262,0 10.86772,3.5205 12.98681,8.5912 l 7.34942,-7.34942 c -4.28065,-6.73996 -11.80802,-11.24169 -20.33623,-11.24169 z"
         inkscape:original-d="m 110.28112,72.625024 c -17.304551,0 -32.801312,7.91612 -43.0599,20.315039 l 7.067786,7.067787 C 82.68131,89.409007 95.666412,82.624931 110.28112,82.624931 c 14.61462,0 27.59981,6.784197 35.99212,17.382919 l 7.0683,-7.068303 C 143.08296,80.540802 127.58554,72.625024 110.28112,72.625024 Z m 0,15.812472 c -12.938379,0 -24.47485,6.188604 -31.807357,15.755114 l 7.116878,7.11687 c 5.419919,-7.7901 14.434089,-12.872078 24.690479,-12.872078 10.25628,0 19.27106,5.081608 24.691,12.871568 l 7.11636,-7.11636 C 134.75597,94.626174 123.21945,88.437496 110.28112,88.437496 Z m 0,15.984554 c -8.52825,0 -16.055578,4.50168 -20.336223,11.24169 l 7.349423,7.34942 c 2.119086,-5.07071 7.10418,-8.59121 12.9868,-8.5912 5.88262,0 10.86772,3.5205 12.98681,8.5912 l 7.34942,-7.34942 c -4.28065,-6.73996 -11.80802,-11.24169 -20.33623,-11.24169 z" />
    </g>
    <rect
       style="fill:#000000;stroke:none;stroke-width:10;stroke-dasharray:none"
       id="rect35224"
       width="76.656242"
       height="9.28125"
       x="-46.240799"
       y="-156.09232"
       transform="rotate(135)" />
  </g>
</svg>
